#!OML:ASF F:\VICON\USERDATA\INSTALL\rory3\rory3.ASF
:FULLY-SPECIFIED
:DEGREES
141
root 0.8155375633488041 18.04308642462644 41.50077667714434 2.742599472197491 3.3989023054787944 0.5099346171439021
lfemur -21.013495002806113 2.30635802820418 -20.039622093593145
ltibia 58.39611710365593
lfoot -2.020409739897681 -11.415900530303535
ltoes -8.387326589521637
rfemur -20.5791825794689 5.7510653728883 29.72331642330429
rtibia 64.25471709183613
rfoot 3.6321514878927994 -5.125602330574515
rtoes -1.5329055698267289
lowerback 14.454147240676276 0.25710564572189815 2.3110846759415553
upperback -0.9081891650359246 2.0769764577652396 1.5579171747031382
thorax -9.39770252870222 0.7113430773365126 -0.34769689695481204
lowerneck -19.982922556178607 -4.7208294557001 -1.8274056120602697
upperneck 15.190079276859521 -7.3597882096586655 2.9836760560261744
head 8.280391332337414 -2.891124751877945 0.5019869196035502
lclavicle -1.9521729781560437e-15 1.1013548979497733e-15
lhumerus -52.48477075319637 -7.182648493651448 97.82845471755667
lradius 111.07383844345739
lwrist 46.63911073237434
lhand -17.633883413514265 6.518533178399496
lfingers 7.125020000000001
lthumb 8.54960123256867 36.382888863468835
rclavicle -1.952176533109819e-15 1.1013521049827522e-15
rhumerus -45.34774958932397 15.741390774573135 -100.75439780463927
rradius 113.12395773803588
rwrist -14.83347273849744
rhand -24.15992964001581 -106.0616949563192
rfingers 7.125020000000001
rthumb 3.7825576886271195 15.00772601712243
142
root 0.8111498970547528 18.03262260755808 40.799301121218704 2.602906915445484 3.286287467608803 0.4309243368046407
lfemur -22.51417034328675 1.7721615125256105 -21.21479647329909
ltibia 56.422662069425435
lfoot -2.315359849628935 -11.791504845712037
ltoes -8.7478448914624
rfemur -17.681045934738727 6.240436410464719 30.848225215290647
rtibia 66.02567011101898
rfoot 4.3017414865812915 -4.710380072799258
rtoes -1.0547241635630726
lowerback 14.467165525261244 0.3372963614637648 2.3756123341719566
upperback -0.953303819207623 2.1126870872647827 1.4683079243587676
thorax -9.318099411326678 0.7420842606651419 -0.3122774082688701
lowerneck -20.01487946420701 -4.67557907918949 -1.8188348926483269
upperneck 15.26320002516292 -7.283637883586616 3.0806433426961797
head 8.28089571205181 -2.919039030359247 0.499577094106761
lclavicle -1.9521729781560437e-15 1.1013548979497733e-15
lhumerus -52.09963501513502 -6.984134171369503 97.745040149119
lradius 111.07477096325636
lwrist 46.643058018194594
lhand -17.57975073073884 6.5885215827555506
lfingers 7.125020000000001
lthumb 8.59022160515109 36.37229870727507
rclavicle -1.952176533109819e-15 1.1013521049827522e-15
rhumerus -45.187770082249045 16.029440248754423 -100.78438323289382
rradius 113.3182881239494
rwrist -14.794612933360034
rhand -24.303851555099165 -106.19754430133784
rfingers 7.125020000000001
rthumb 3.505025996167275 14.232779170404273
143
root 0.808264190391818 18.019854783896097 40.82230752070097 2.5011091602273483 3.3103307135533884 0.378101599340277
lfemur -20.461316243904356 1.7958861315629964 -20.800266922774377
ltibia 54.72333400250977
lfoot -0.9446606981275278 -11.601415409258012
ltoes -8.51701106544619
rfemur -18.971326905883732 5.911807222814962 29.897398670575427
rtibia 67.58819013954653
rfoot 4.9201638519568425 -4.36378852399048
rtoes -1.2089138837842643
lowerback 14.374821842446107 0.32618419841405405 2.167891861802402
upperback -0.9852611022069467 2.1419347365574595 1.3860846281735872
thorax -9.286995255857082 0.7666364402678296 -0.2876268055419684
lowerneck -20.089279812628398 -4.753388982024539 -1.8590570126674675
upperneck 15.201758677330707 -7.351450546333264 3.077343040087152
head 8.242954422245425 -2.9837020617175742 0.4864137261741898
lclavicle -1.9521729781560437e-15 1.1013548979497733e-15
lhumerus -51.45535281643394 -6.780422716430411 97.66962411133932
lradius 110.51104741775708
lwrist 46.83755730629185
lhand -17.598707873971605 6.52239678759047
lfingers 7.125020000000001
lthumb 8.6487470510408 36.39757974180034
rclavicle -1.952176533109819e-15 1.1013521049827522e-15
rhumerus -45.2305025905924 16.189762017666588 -100.84647540565898
rradius 113.43579301176149
rwrist -15.403362813602461
rhand -24.454566029620253 -107.17504000120005
rfingers 7.125020000000001
rthumb 3.5045519713101716 14.032407790465657
144
root 0.7987054742420281 17.976157428429154 40.187988162135845 2.299201410606194 3.189792325947547 0.38585459630700614
lfemur -23.319777973206897 1.156603782474154 -21.718976922417944
ltibia 52.38365151744845
lfoot 0.07671780863950883 -11.14771599186042
ltoes -8.683814422578028
rfemur -20.057505392183003 5.626583857183338 29.26339064313897
rtibia 68.29413314559477
rfoot 4.267105205640828 -4.681500651961813
rtoes -1.6384948686787197
lowerback 14.303967426191505 0.3153230516407306 2.038911573330834
upperback -0.9938129835044895 2.1319559952484815 1.319997541500489
thorax -9.424036450420742 0.6458650357738023 -0.5432467800548186
lowerneck -20.12717889465928 -4.84186994311142 -1.9007510999704909
upperneck 15.267079283280816 -7.302174507818343 3.1350962135975298
head 8.203454256328866 -3.0557760779297145 0.47342268852289204
lclavicle -1.9521729781560437e-15 1.1013548979497733e-15
lhumerus -52.19089326941554 -7.093344094453709 97.3700885361183
lradius 110.71622123653353
lwrist 46.693651499372024
lhand -17.635213239919292 6.461749096447177
lfingers 7.125020000000001
lthumb 8.576021000237551 36.23427102404916
rclavicle -1.952176533109819e-15 1.1013521049827522e-15
rhumerus -45.339171621471124 16.26667225253544 -100.9196078243409
rradius 113.44585734547711
rwrist -15.823154731188032
rhand -24.329827758344848 -105.73701617512168
rfingers 7.125020000000001
rthumb 3.4173293050946705 14.174091316666711
